<?xml version="1.0" encoding="UTF-8"?>
<svg xmlns="http://www.w3.org/2000/svg" id="Layer_1" data-name="Layer 1" viewBox="0 0 24 24">
  <path fill="#FFFFFF" d="m23.989,10.895c-.058-.27-.321-.444-.594-.383l-5.406,1.164c.893-1.152,1.236-2.26.856-3.156-.495-1.167-2.055-1.688-4.416-1.468-1.501.215-2.469.539-3.405.852l-.687.229c-.166-.604-.26-1.123-.304-1.417,2.028-1.501,2.967-4.227,2.967-6.216,0-.276-.224-.5-.5-.5s-.5.224-.5.5c0,1.835-.92,4.282-2.67,5.5H3.728C2.041,4.029,1,1.936,1,.5c0-.276-.224-.5-.5-.5s-.5.224-.5.5c0,1.717,1.143,4.051,3.061,6.257.433,1.208,1.087,2.648,1.887,3.958-2.986,2.041-4.446,4.222-3.793,5.761.227.535.677.938,1.339,1.197.562.22,1.266.326,2.071.326,1.277,0,2.811-.273,4.436-.784v6.285c0,.276.224.5.5.5s.5-.224.5-.5v-6.628c.527-.194,1.059-.405,1.593-.646,2.127-.959,3.906-2.105,5.19-3.269l6.822-1.469c.27-.058.442-.324.384-.594ZM4.221,7h4.842c.146.922.6,3.054,1.82,4.604.096.122.136.278.108.428-.014.076-.059.216-.206.305-.362.219-.719.396-1.06.525-.783.297-1.643.116-2.245-.471-.477-.466-2.224-2.21-3.259-5.39Zm6.961,8.315c-3.326,1.5-6.673,2.074-8.324,1.426-.402-.157-.665-.377-.783-.656-.369-.869.711-2.675,3.419-4.534.403.576.833,1.11,1.288,1.554.602.587,1.38.897,2.18.897.374,0,.751-.068,1.118-.207.397-.151.809-.354,1.223-.605.353-.213.598-.571.672-.981.079-.432-.034-.878-.307-1.226-.45-.571-.774-1.248-1.019-1.902l.692-.23c.894-.299,1.818-.609,3.206-.808,1.813-.174,3.076.153,3.377.865.566,1.335-2.064,4.294-6.742,6.405ZM6.5,5c1.378,0,2.5-1.122,2.5-2.5S7.878,0,6.5,0s-2.5,1.122-2.5,2.5,1.122,2.5,2.5,2.5Zm0-4c.827,0,1.5.673,1.5,1.5s-.673,1.5-1.5,1.5-1.5-.673-1.5-1.5.673-1.5,1.5-1.5Z"/>
</svg>
