<?xml version="1.0" encoding="UTF-8"?>
<svg xmlns="http://www.w3.org/2000/svg" id="Layer_1" data-name="Layer 1" viewBox="0 0 24 24">
  <path fill="#FFFFFF" d="m23.14,7.886l-3.169-3.15,1.883-1.883c.195-.195.195-.512,0-.707s-.512-.195-.707,0l-1.885,1.885-3.164-3.144c-.561-.569-1.31-.884-2.108-.887-.816.005-1.552.307-2.117.872-1.145,1.144-1.158,3.02-.025,4.185l3.185,3.205-6.764,6.763-3.146-3.146c-1.17-1.17-3.072-1.17-4.242,0-.566.566-.879,1.32-.879,2.121s.312,1.555.879,2.121l3.146,3.146-1.879,1.879c-.195.195-.195.512,0,.707.098.098.226.146.354.146s.256-.049.354-.146l1.879-1.879,3.147,3.147c.585.585,1.353.877,2.121.877s1.536-.292,2.121-.877c.566-.566.879-1.32.879-2.121s-.313-1.555-.879-2.121l-3.147-3.147,6.762-6.761,3.108,3.128c.561.576,1.312.896,2.115.901h.02c.796,0,1.542-.31,2.148-.916,1.152-1.152,1.159-3.034.012-4.199Zm-11.14,13.114c0,.534-.208,1.036-.586,1.414-.779.779-2.049.779-2.828,0L1.586,15.414c-.378-.378-.586-.88-.586-1.414s.208-1.036.586-1.414c.39-.39.902-.585,1.414-.585s1.024.195,1.414.585l3.496,3.496s.002.003.003.004.003.002.004.003l3.497,3.497c.378.378.586.88.586,1.414Zm10.377-9.579c-.374.374-.869.579-1.397.579h-.014c-.533-.003-1.032-.216-1.408-.603l-6.998-7.042c-.75-.771-.741-2.016.02-2.776.374-.374.87-.579,1.398-.579h.008c.53.002,1.027.211,1.403.593l7.042,6.999c.76.771.756,2.021-.054,2.83Z"/>
</svg>
